{
    "asset": {
        "generator": "COLLADA2GLTF",
        "version": "2.0"
    },
    "scene": 0,
    "scenes": [
        {
            "nodes": [
                0
            ]
        }
    ],
    "nodes": [
        {
            "children": [
                2,
                1
            ],
            "matrix": [
                1.0,
                0.0,
                0.0,
                0.0,
                0.0,
                0.0,
                -1.0,
                0.0,
                0.0,
                1.0,
                0.0,
                0.0,
                0.0,
                0.0,
                0.0,
                1.0
            ]
        },
        {
            "mesh": 0,
            "matrix": [
                0.18659250438213349,
                0.0,
                0.0,
                0.0,
                0.0,
                0.18659250438213349,
                0.0,
                0.0,
                0.0,
                0.0,
                0.18659250438213349,
                0.0,
                0.0,
                0.0,
                0.0,
                1.0
            ]
        },
        {
            "matrix": [
                0.9041942954063416,
                0.4268895089626312,
                0.01407311949878931,
                0.0,
                0.1279762089252472,
                -0.3022071123123169,
                0.9446126222610474,
                0.0,
                0.40749821066856387,
                -0.8523123264312744,
                -0.3278855979442597,
                0.0,
                0.8443185091018677,
                -2.360563039779663,
                0.06209905818104744,
                1.0
            ],
            "camera": 0
        }
    ],
    "cameras": [
        {
            "perspective": {
                "yfov": 0.7634944915771484,
                "zfar": 100.0,
                "znear": 0.10000000149011612
            },
            "type": "perspective"
        }
    ],
    "meshes": [
        {
            "primitives": [
                {
                    "attributes": {
                        "NORMAL": 1,
                        "POSITION": 2,
                        "TEXCOORD_0": 3
                    },
                    "indices": 0,
                    "mode": 4
                }
            ],
            "name": "Cylinder.004"
        }
    ],
    "accessors": [
        {
            "bufferView": 0,
            "byteOffset": 0,
            "componentType": 5123,
            "count": 1428,
            "max": [
                1395
            ],
            "min": [
                0
            ],
            "type": "SCALAR"
        },
        {
            "bufferView": 1,
            "byteOffset": 0,
            "componentType": 5126,
            "count": 1396,
            "max": [
                0.9995903372764589,
                0.9988471269607544,
                0.9969118237495422
            ],
            "min": [
                -0.9995903372764589,
                -0.995764970779419,
                -1.0
            ],
            "type": "VEC3"
        },
        {
            "bufferView": 1,
            "byteOffset": 16752,
            "componentType": 5126,
            "count": 1396,
            "max": [
                1.64159893989563,
                0.7259461283683777,
                11.415239334106446
            ],
            "min": [
                -1.64159893989563,
                -0.8542162179946899,
                0.0
            ],
            "type": "VEC3"
        },
        {
            "bufferView": 2,
            "byteOffset": 0,
            "componentType": 5126,
            "count": 1396,
            "max": [
                1.0,
                1.0
            ],
            "min": [
                0.0,
                0.0
            ],
            "type": "VEC2"
        }
    ],
    "bufferViews": [
        {
            "buffer": 0,
            "byteOffset": 44672,
            "byteLength": 2856,
            "target": 34963
        },
        {
            "buffer": 0,
            "byteOffset": 0,
            "byteLength": 33504,
            "byteStride": 12,
            "target": 34962
        },
        {
            "buffer": 0,
            "byteOffset": 33504,
            "byteLength": 11168,
            "byteStride": 8,
            "target": 34962
        }
    ],
    "buffers": [
        {
            "byteLength": 47528,
            "uri": "data:application/octet-stream;base64,"
        }
    ]
}
